# xmcd CD database file
#
# Track frame offsets:
#	150
#	13872
#	27695
#	38790
#	63562
#	78812
#	98950
#	114497
#	134420
#	151352
#	169020
#	182490
#	206915
#
# Disc length: 2959 seconds
#
# Revision: 2
# Processed by: cddbd v1.5.2PL0 Copyright (c) Steve Scherf et al.
# Submitted via: jetAudio 5
#
DISCID=af0b8d0d
DTITLE=Theresa Malenfant - Eye of the Hurricane
DYEAR=1994
DGENRE=R&B
TTITLE0=Eye of the Hurricane
TTITLE1=Say You Will
TTITLE2=Tell Mama
TTITLE3=Rest Easy
TTITLE4=Think About it
TTITLE5=Almost Over
TTITLE6=Don't Look Back
TTITLE7=Consider Me
TTITLE8=Early Frost
TTITLE9=Threw it all Away
TTITLE10=You Win I Lose
TTITLE11=As Long as I've Got Jesus
TTITLE12=January
EXTD=
EXTT0=
EXTT1=
EXTT2=
EXTT3=
EXTT4=
EXTT5=
EXTT6=
EXTT7=
EXTT8=
EXTT9=
EXTT10=
EXTT11=
EXTT12=
PLAYORDER=
